<?xml version="1.0" encoding="UTF-8" standalone="no"?>
<!-- Created with Inkscape (http://www.inkscape.org/) -->

<svg
   xmlns:dc="http://purl.org/dc/elements/1.1/"
   xmlns:cc="http://creativecommons.org/ns#"
   xmlns:rdf="http://www.w3.org/1999/02/22-rdf-syntax-ns#"
   xmlns:svg="http://www.w3.org/2000/svg"
   xmlns="http://www.w3.org/2000/svg"
   xmlns:sodipodi="http://sodipodi.sourceforge.net/DTD/sodipodi-0.dtd"
   xmlns:inkscape="http://www.inkscape.org/namespaces/inkscape"
   width="570.59491"
   height="434.03574"
   id="svg2"
   version="1.1"
   inkscape:version="0.47 r22583"
   sodipodi:docname="Novo documento 1">
  <defs
     id="defs4">
    <inkscape:perspective
       sodipodi:type="inkscape:persp3d"
       inkscape:vp_x="0 : 526.18109 : 1"
       inkscape:vp_y="0 : 1000 : 0"
       inkscape:vp_z="744.09448 : 526.18109 : 1"
       inkscape:persp3d-origin="372.04724 : 350.78739 : 1"
       id="perspective10" />
    <inkscape:perspective
       id="perspective2824"
       inkscape:persp3d-origin="0.5 : 0.33333333 : 1"
       inkscape:vp_z="1 : 0.5 : 1"
       inkscape:vp_y="0 : 1000 : 0"
       inkscape:vp_x="0 : 0.5 : 1"
       sodipodi:type="inkscape:persp3d" />
  </defs>
  <sodipodi:namedview
     id="base"
     pagecolor="#ffffff"
     bordercolor="#666666"
     borderopacity="1.0"
     inkscape:pageopacity="0.0"
     inkscape:pageshadow="2"
     inkscape:zoom="0.35"
     inkscape:cx="243.09921"
     inkscape:cy="173.79706"
     inkscape:document-units="px"
     inkscape:current-layer="layer1"
     showgrid="false"
     inkscape:window-width="1600"
     inkscape:window-height="838"
     inkscape:window-x="-8"
     inkscape:window-y="-8"
     inkscape:window-maximized="1" />
  <metadata
     id="metadata7">
    <rdf:RDF>
      <cc:Work
         rdf:about="">
        <dc:format>image/svg+xml</dc:format>
        <dc:type
           rdf:resource="http://purl.org/dc/dcmitype/StillImage" />
        <dc:title></dc:title>
      </cc:Work>
    </rdf:RDF>
  </metadata>
  <g
     inkscape:label="Camada 1"
     inkscape:groupmode="layer"
     id="layer1"
     transform="translate(-100.16318,-347.33638)">
    <path
       style="fill:#ffffff;fill-opacity:1;stroke:none"
       d="m 179.64286,748.43362 c 1.80694,-37.93516 23.25628,-80.04003 5.80769,-114.83938 -15.91057,-31.73194 -35.89786,-77.90926 -49.02198,-96.23206 -5.42865,-7.57904 -33.63882,48.54942 -36.23726,35.01842 C 97.897088,440.69305 236.38802,379.84399 349.485,384.83399 c 28.45237,5.28872 51.59745,3.32619 72.90983,-16.5817 44.34393,-31.86711 125.49022,-24.11388 170.41036,1.78512 107.06347,84.80677 98.76834,210.40626 6.10966,302.73643 -19.00763,16.49941 0.86178,41.7677 20.73668,25.84625 29.60891,-16.49809 50.82241,40.14502 16.97772,42.31921 -29.49839,-1.50717 -69.01551,1.58475 -80.49602,-33.4097 -20.29195,-27.19693 27.95755,-85.96373 26.70849,-107.04334 -1.59449,-26.90919 -102.07199,38.93848 -106.00013,66.94019 -3.72593,26.56028 42.11624,51.51076 34.02893,89.60592 -8.08731,38.09516 -44.99608,19.15102 -65.52694,22.6655 -27.3079,4.67458 -50.44034,-10.92437 -36.14242,-40.32567 10.42915,-21.4458 8.55938,-57.29948 -11.04432,-70.24838 -20.07863,-13.26261 -46.76943,15.92419 -76.16113,7.43272 -29.0408,-8.3901 -60.67442,13.36948 -39.1508,27.31233 16.62294,10.76822 37.9858,68.14817 4.91116,72.74648 -33.07464,4.59831 -72.69132,8.45791 -101.17588,-12.93275 -4.56343,-3.42694 -7.20174,-9.69796 -6.93733,-15.24898 z"
       id="path2830"
       sodipodi:nodetypes="cssccccccccsszssssszss" />
  </g>
</svg>
